<svg width="32" height="32" viewBox="0 0 32 32" fill="none" xmlns="http://www.w3.org/2000/svg">
<path d="M25.8749 11.0938C26.1124 10.5437 25.9999 9.90625 25.5874 9.46875L17.0874 0.46875C16.8061 0.16875 16.4124 0 15.9999 0C15.5874 0 15.1936 0.16875 14.9124 0.46875L6.41235 9.46875C5.99985 9.90625 5.88735 10.5437 6.12485 11.0938C6.36235 11.6438 6.89985 12 7.49985 12H11.9999V30C11.9999 31.1063 12.8936 32 13.9999 32H17.9999C19.1061 32 19.9999 31.1063 19.9999 30V12H24.4999C25.0999 12 25.6374 11.6438 25.8749 11.0938Z" fill="#15A301"/>
</svg>
